#!OML:ASF H:\Terrain\Patient Classification 1\Animal1\Tuesday\Animal1.ASF
:FULLY-SPECIFIED
:DEGREES
3362
root 12.4446 16.0573 -2.2104 22.3889 -7.84831 -2.11088
lowerback 12.7928 -5.14396 3.3205
upperback -5.25422 -5.23273 10.0035
thorax -12.4069 -2.24805 10.6424
lowerneck -0.020192 -12.8248 -10.3396
upperneck -6.68273 -16.7442 18.8893
head 0.611336 -8.56056 6.90039
rclavicle 1.47101e-013 -1.04958e-013
rhumerus -2.30701 -10.0184 -49.8621
rradius 79.0123
rwrist 8.19446
rhand -27.2045 -1044.28
rfingers 7.12502
rthumb -0.617628 5.73988
lclavicle 1.47101e-013 -1.04958e-013
lhumerus 15.1168 -34.0802 75.5204
lradius 78.8767
lwrist -58.5806
lhand -16.3101 53.8559
lfingers 7.12502
lthumb 9.901 1883.6
rfemur -52.7461 23.637 2.23854
rtibia 37.9864
rfoot -14.628 4.90974
rtoes 7.13659
lfemur -43.5259 1.65127 -10.7454
ltibia 48.1214
lfoot -16.768 31.3529
ltoes 1.51299
3363
root 12.4641 16.0637 -2.20687 22.4894 -8.70783 -2.11874
lowerback 12.6547 -5.15728 3.46267
upperback -5.21942 -5.24622 9.98099
thorax -12.2965 -2.27519 10.5107
lowerneck 0.176039 -12.5272 -10.9671
upperneck -6.93026 -16.3362 19.2259
head 0.53705 -8.36872 7.14827
rclavicle -5.56597e-015 6.99722e-014
rhumerus -1.70964 -9.76112 -50.4877
rradius 78.8631
rwrist 8.35789
rhand -27.3346 -1044.55
rfingers 7.12502
rthumb -0.743215 5.47475
lclavicle -5.56597e-015 6.99722e-014
lhumerus 16.2109 -35.007 75.3491
lradius 78.3136
lwrist -58.7587
lhand -16.782 53.5803
lfingers 7.12502
lthumb 9.44571 1883.35
rfemur -52.9272 24.1239 1.79168
rtibia 37.5372
rfoot -14.8078 4.69934
rtoes 5.68499
lfemur -43.236 1.83577 -10.9482
ltibia 47.9369
lfoot -16.5249 31.8059
ltoes 0.998571
3364
root 12.478 16.0745 -2.19832 22.4044 -9.69737 -2.16053
lowerback 12.7431 -5.09423 3.54056
upperback -5.16999 -5.14934 9.93302
thorax -12.3181 -2.23745 10.3949
lowerneck -0.5959 -12.2492 -10.7162
upperneck -6.0715 -16.0008 18.1242
head 0.732117 -8.1254 6.72816
rclavicle -5.1684e-014 5.08889e-014
rhumerus -1.2661 -9.58103 -51.1566
rradius 78.7201
rwrist 8.66953
rhand -27.4846 -1044.25
rfingers 7.12502
rthumb -0.888125 5.77079
lclavicle -5.1684e-014 5.08889e-014
lhumerus 16.9315 -35.9709 75.4634
lradius 77.9514
lwrist -59.1471
lhand -17.2753 53.6336
lfingers 7.12502
lthumb 8.96973 1883.42
rfemur -52.9319 24.8091 1.42743
rtibia 37.0961
rfoot -15.1993 4.30442
rtoes 2.85251
lfemur -42.5862 2.15105 -11.1313
ltibia 47.6865
lfoot -16.5624 31.9304
ltoes 0.806527
3365
root 12.491 16.095 -2.18505 22.1838 -10.8049 -1.83943
lowerback 12.8984 -5.05861 3.30087
upperback -5.16975 -5.15126 9.75854
thorax -12.4017 -2.22384 10.3487
lowerneck -0.879751 -11.9807 -10.6733
upperneck -5.61373 -15.6646 17.337
head 0.784593 -7.92155 6.48228
rclavicle -7.87187e-014 -2.54444e-014
rhumerus -0.904526 -9.13636 -51.8787
rradius 78.5909
rwrist 8.75508
rhand -27.8827 -1044.21
rfingers 7.12502
rthumb -1.27261 5.81032
lclavicle -7.87187e-014 -2.54444e-014
lhumerus 17.3536 -36.8943 75.6111
lradius 77.7181
lwrist -59.754
lhand -17.1793 53.5838
lfingers 7.12502
lthumb 9.06228 1883.37
rfemur -52.8066 25.3867 0.734385
rtibia 36.6111
rfoot -15.4215 3.92471
rtoes 1.77976
lfemur -41.8252 2.31349 -11.6887
ltibia 47.4112
lfoot -16.2762 32.4097
ltoes -0.923442
3366
root 12.5099 16.1155 -2.16781 22.0382 -11.8437 -1.51809
lowerback 12.8794 -5.16039 3.22739
upperback -5.16305 -5.32464 9.60032
thorax -12.3628 -2.31194 10.2368
lowerneck -1.00892 -11.6242 -10.9432
upperneck -5.40519 -15.1944 16.9345
head 0.78537 -7.6668 6.42498
rclavicle -6.99722e-014 2.8625e-014
rhumerus -0.345538 -8.47767 -52.7511
rradius 78.4711
rwrist 8.64886
rhand -27.6956 -1044.51
rfingers 7.12502
rthumb -1.09191 5.50912
lclavicle -6.99722e-014 2.8625e-014
lhumerus 17.8333 -37.7848 75.3607
lradius 77.2534
lwrist -60.0475
lhand -17.074 53.5379
lfingers 7.12502
lthumb 9.16398 1883.32
rfemur -52.6678 25.7669 0.114895
rtibia 36.093
rfoot -15.6818 2.94045
rtoes -3.04927
lfemur -41.2205 2.32527 -12.2008
ltibia 47.1515
lfoot -16.2282 32.8968
ltoes -0.970533
3367
root 12.5303 16.122 -2.15655 22.0147 -12.9309 -1.60668
lowerback 12.8861 -5.264 3.50544
upperback -5.11785 -5.42817 9.51555
thorax -12.3352 -2.39083 9.99625
lowerneck -1.33494 -11.2381 -10.9995
upperneck -5.11668 -14.6749 16.3903
head 0.806828 -7.38095 6.28251
rclavicle -5.32743e-014 -2.06736e-014
rhumerus 0.170783 -7.77727 -53.7365
rradius 78.52
rwrist 8.41738
rhand -27.3812 -1044.7
rfingers 7.12502
rthumb -0.788309 5.32367
lclavicle -5.32743e-014 -2.06736e-014
lhumerus 18.2406 -38.6931 74.8827
lradius 76.9184
lwrist -59.9567
lhand -16.9751 53.8444
lfingers 7.12502
lthumb 9.25939 1883.62
rfemur -52.7319 26.347 -0.225946
rtibia 35.5788
rfoot -15.7193 2.01648
rtoes -8.24319
lfemur -40.7161 2.44909 -12.2263
ltibia 46.9374
lfoot -16.9257 32.8051
ltoes 2.25638
3368
root 12.547 16.1296 -2.15065 22.0688 -13.9908 -1.48635
lowerback 12.8353 -5.35564 3.65385
upperback -5.13895 -5.5484 9.34228
thorax -12.3434 -2.46934 9.73101
lowerneck -1.72082 -10.9049 -10.8963
upperneck -4.87052 -14.2167 15.728
head 0.814939 -7.1274 6.07433
rclavicle -6.67916e-014 5.24792e-014
rhumerus 0.496169 -7.16483 -54.8231
rradius 78.6721
rwrist 8.40384
rhand -27.4581 -1044.66
rfingers 7.12502
rthumb -0.86254 5.36328
lclavicle -6.67916e-014 5.24792e-014
lhumerus 18.5438 -39.6165 74.4826
lradius 76.6991
lwrist -59.7094
lhand -17.3042 54.2876
lfingers 7.12502
lthumb 8.94182 1884.08
rfemur -52.9911 26.799 -0.883345
rtibia 35.0714
rfoot -15.6308 2.25448
rtoes -6.87245
lfemur -40.3448 2.33344 -12.3709
ltibia 46.727
lfoot -17.426 32.6601
ltoes 4.29703
3369
root 12.5665 16.1509 -2.13248 22.1989 -15.0541 -1.11608
lowerback 12.5948 -5.4431 3.7791
upperback -5.28127 -5.68257 9.10577
thorax -12.3804 -2.55464 9.39862
lowerneck -1.85776 -10.6112 -11.1961
upperneck -4.79063 -13.8123 15.3215
head 0.794412 -6.91086 6.0178
rclavicle -1.74931e-014 1.90833e-014
rhumerus 0.616247 -6.6205 -55.8621
rradius 78.7751
rwrist 8.64651
rhand -27.5219 -1044.3
rfingers 7.12502
rthumb -0.924132 5.71888
lclavicle -1.74931e-014 1.90833e-014
lhumerus 18.599 -40.3536 74.4686
lradius 76.0725
lwrist -59.1338
lhand -19.049 51.9687
lfingers 7.12502
lthumb 7.25786 1881.82
rfemur -53.1982 26.876 -1.64124
rtibia 34.599
rfoot -15.7847 2.38935
rtoes -6.07882
lfemur -40.0268 2.07818 -12.799
ltibia 46.4516
lfoot -16.4754 33.1369
ltoes 1.51357
3370
root 12.5901 16.1715 -2.10278 22.3752 -16.4212 -0.883025
lowerback 12.2141 -5.4762 4.08267
upperback -5.39695 -5.73268 8.81822
thorax -12.3375 -2.62155 8.86596
lowerneck -1.88868 -10.2713 -11.6728
upperneck -4.69404 -13.3536 15.0812
head 0.780283 -6.67011 6.04619
rclavicle 6.0033e-014 -3.65764e-014
rhumerus 0.59981 -5.99163 -56.8879
rradius 78.9154
rwrist 8.86113
rhand -27.4918 -1044.29
rfingers 7.12502
rthumb -0.895081 5.73455
lclavicle 6.0033e-014 -3.65764e-014
lhumerus 18.462 -41.1485 74.4095
lradius 76.0905
lwrist -60.0829
lhand -17.8764 53.3522
lfingers 7.12502
lthumb 8.38962 1883.17
rfemur -53.3523 26.8231 -2.0429
rtibia 34.1976
rfoot -16.1722 0.545718
rtoes -15.3189
lfemur -39.5427 2.03587 -13.1679
ltibia 46.105
lfoot -16.4975 33.3979
ltoes 1.61436
3371
root 12.6072 16.1912 -2.07319 22.4032 -17.9551 -0.493835
lowerback 11.9502 -5.52034 4.13169
upperback -5.48106 -5.84037 8.47806
thorax -12.3005 -2.69707 8.44264
lowerneck -2.19209 -9.89403 -11.6856
upperneck -4.44594 -12.8358 14.3896
head 0.780201 -6.39154 5.85403
rclavicle -4.13472e-014 -5.08889e-014
rhumerus 0.835899 -5.21396 -58.0607
rradius 78.9062
rwrist 9.02527
rhand -27.3777 -1044.73
rfingers 7.12502
rthumb -0.78485 5.29376
lclavicle -4.13472e-014 -5.08889e-014
lhumerus 18.15 -41.8139 74.2754
lradius 76.1369
lwrist -60.3303
lhand -17.4705 53.7694
lfingers 7.12502
lthumb 8.78136 1883.57
rfemur -53.4251 26.7267 -2.47555
rtibia 33.842
rfoot -16.3967 -1.68209
rtoes -23.7242
lfemur -38.814 2.03759 -13.7181
ltibia 45.6976
lfoot -18.0216 33.1016
ltoes 5.70513
3372
root 12.6158 16.2093 -2.04832 22.3734 -19.4782 -0.0397918
lowerback 11.7017 -5.54438 4.03487
upperback -5.54369 -5.94573 8.13723
thorax -12.2333 -2.76077 8.10023
lowerneck -2.66012 -9.5194 -11.4285
upperneck -4.17686 -12.3112 13.5069
head 0.785257 -6.10858 5.55454
rclavicle -1.80099e-013 7.4743e-014
rhumerus 1.30178 -4.57693 -59.3683
rradius 78.6789
rwrist 9.31746
rhand -27.5305 -1044.78
rfingers 7.12502
rthumb -0.932439 5.24687
lclavicle -1.80099e-013 7.4743e-014
lhumerus 17.319 -42.3763 74.5839
lradius 76.3776
lwrist -60.7595
lhand -17.2745 54.0721
lfingers 7.12502
lthumb 8.9705 1883.86
rfemur -53.5494 26.6649 -3.04647
rtibia 33.4778
rfoot -16.5098 -2.47848
rtoes -25.1395
lfemur -38.1172 2.16545 -14.3378
ltibia 45.2885
lfoot -18.9634 32.7604
ltoes 8.11651
